<svg width="20" height="20" viewBox="0 0 20 20" fill="none" xmlns="http://www.w3.org/2000/svg">
<path fill-rule="evenodd" clip-rule="evenodd" d="M8.33341 10.8333C5.57091 10.8333 3.33341 8.59575 3.33341 5.83325C3.33341 3.07075 5.57091 0.833252 8.33341 0.833252C11.0959 0.833252 13.3334 3.07075 13.3334 5.83325C13.3334 8.59575 11.0959 10.8333 8.33341 10.8333ZM1.66675 18.3333C1.66675 14.6514 4.65152 11.6666 8.33341 11.6666C12.0153 11.6666 15.0001 14.6514 15.0001 18.3333H13.3334C13.3334 15.5718 11.0948 13.3333 8.33341 13.3333C5.57199 13.3333 3.33341 15.5718 3.33341 18.3333H1.66675ZM11.6667 5.83325C11.6667 7.67492 10.1751 9.16658 8.33341 9.16658C6.49175 9.16658 5.00008 7.67492 5.00008 5.83325C5.00008 3.99159 6.49175 2.49992 8.33341 2.49992C10.1751 2.49992 11.6667 3.99159 11.6667 5.83325ZM15.2367 12.2524C17.6289 13.3298 19.167 15.7097 19.1667 18.3333H17.5001C17.5005 16.3655 16.3468 14.5804 14.5526 13.7724L15.2359 12.2524H15.2367ZM17.5001 7.08325C17.5008 5.22597 16.3805 3.55188 14.6634 2.84409L14.2009 4.46325C15.3513 5.02563 16.0003 6.27251 15.801 7.53736C15.6018 8.80222 14.6009 9.78922 13.3334 9.97075V11.6483C15.6939 11.4332 17.5008 9.45351 17.5001 7.08325Z" fill="#D0D6DC"/>
</svg>
