<svg width="20" height="20" viewBox="0 0 20 20" fill="none" xmlns="http://www.w3.org/2000/svg">
<path fill-rule="evenodd" clip-rule="evenodd" d="M3.33341 5.83325C3.33341 8.59575 5.57091 10.8333 8.33341 10.8333C11.0959 10.8333 13.3334 8.59575 13.3334 5.83325C13.3334 3.07075 11.0959 0.833252 8.33341 0.833252C5.57091 0.833252 3.33341 3.07075 3.33341 5.83325ZM8.33341 11.6666C4.65152 11.6666 1.66675 14.6514 1.66675 18.3333H15.0001C15.0001 14.6514 12.0153 11.6666 8.33341 11.6666ZM14.4692 12.6941C17.0838 13.3661 18.9721 15.6398 19.1526 18.3333H16.6667C16.6667 16.1583 15.8334 14.1783 14.4692 12.6941ZM15.0001 5.83325C15.0022 7.72822 14.1958 9.53411 12.7834 10.7974C13.974 10.9562 15.1753 10.5934 16.0789 9.80204C16.9825 9.01066 17.5005 7.86775 17.5001 6.66659C17.5005 4.68152 16.1004 2.97181 14.1542 2.58075C14.7106 3.5744 15.0019 4.69447 15.0001 5.83325Z" fill="#D0D6DC"/>
</svg>
